<?xml version="1.0" encoding="iso-8859-1"?>
<!-- Generator: Adobe Illustrator 19.0.0, SVG Export Plug-In . SVG Version: 6.00 Build 0)  -->
<svg version="1.1" id="Layer_1" xmlns="http://www.w3.org/2000/svg" xmlns:xlink="http://www.w3.org/1999/xlink" x="0px" y="0px"
	 viewBox="0 0 512 512" style="enable-background:new 0 0 512 512;" xml:space="preserve">
<g>
	<g>
		<path d="M437.02,74.98C388.668,26.629,324.38,0,256,0C187.62,0,123.333,26.629,74.98,74.98C26.629,123.333,0,187.62,0,256.001
			c0,68.38,26.629,132.667,74.98,181.019C123.333,485.371,187.62,512,256,512c68.381,0,132.668-26.629,181.02-74.98
			C485.371,388.668,512,324.38,512,256.001C512,187.62,485.371,123.333,437.02,74.98z M496.105,248.121H352.148
			c3.079-60.22,41.224-112.789,97.555-134.302C478.379,152.715,494.536,199.153,496.105,248.121z M263.879,15.901L263.879,15.901
			c61.217,1.959,118.485,26.71,161.997,70.223c4.77,4.77,9.301,9.715,13.615,14.802c-59.898,24.896-100.122,82.047-103.138,147.195
			h-49.45c-2.874-11.264-11.758-20.151-23.024-23.026V15.901z M86.124,86.124c43.513-43.513,100.78-68.264,161.996-70.223v209.195
			c-11.265,2.873-20.151,11.76-23.025,23.026h-49.448c-3.015-65.143-43.242-122.299-103.138-147.195
			C76.823,95.839,81.354,90.894,86.124,86.124z M62.298,113.819c56.329,21.513,94.495,74.085,97.572,134.302H15.901
			C17.468,199.153,33.621,152.714,62.298,113.819z M15.901,263.88H159.87c-3.077,60.223-41.241,112.789-97.572,134.301
			C33.621,359.286,17.468,312.848,15.901,263.88z M248.12,496.099c-61.217-1.96-118.484-26.71-161.996-70.223
			c-4.77-4.77-9.301-9.714-13.615-14.802c59.899-24.896,100.123-82.047,103.138-147.196h49.448
			c2.873,11.265,11.759,20.151,23.025,23.025V496.099z M239.868,256.001c0-8.895,7.237-16.133,16.132-16.133
			c8.895,0,16.133,7.237,16.133,16.133s-7.237,16.132-16.133,16.132C247.105,272.132,239.868,264.896,239.868,256.001z
			 M425.876,425.876c-43.512,43.513-100.781,68.264-161.997,70.223V286.905c11.265-2.873,20.149-11.76,23.024-23.025h49.45
			c3.015,65.148,43.24,122.299,103.138,147.195C435.177,416.161,430.646,421.106,425.876,425.876z M449.703,398.181
			c-56.331-21.512-94.476-74.081-97.555-134.301h143.956C494.536,312.848,478.379,359.286,449.703,398.181z"/>
	</g>
</g>
<g>
</g>
<g>
</g>
<g>
</g>
<g>
</g>
<g>
</g>
<g>
</g>
<g>
</g>
<g>
</g>
<g>
</g>
<g>
</g>
<g>
</g>
<g>
</g>
<g>
</g>
<g>
</g>
<g>
</g>
</svg>
